<svg width="42" height="43" viewBox="0 0 42 43" fill="none" xmlns="http://www.w3.org/2000/svg">
<rect y="0.576172" width="42" height="42" rx="14.2009" fill="white"/>
<rect y="0.576172" width="42" height="42" rx="14.2009" fill="url(#paint0_linear_1954_136)"/>
<g filter="url(#filter0_d_1954_136)">
<path fill-rule="evenodd" clip-rule="evenodd" d="M14.716 9.18628C14.489 9.06472 14.2204 9 13.8605 9H13.7466C13.3867 9 13.1181 9.06472 12.8911 9.18628C12.6641 9.30775 12.486 9.48614 12.3646 9.7134C12.2432 9.94066 12.1786 10.2096 12.1786 10.5699L12.1797 11.0974C11.6477 11.2206 11.2497 11.3905 10.8502 11.6044C9.94231 12.0906 9.22973 12.804 8.74415 13.713C8.25859 14.622 8 15.5237 8 18.0102V26.021C8 28.5076 8.25859 29.4092 8.74415 30.3183C9.22973 31.2273 9.94231 31.9407 10.8502 32.4268C11.7582 32.913 12.6587 33.1719 15.1422 33.1719H26.8577C29.3412 33.1719 30.2418 32.913 31.1497 32.4268C32.0577 31.9407 32.7702 31.2273 33.2558 30.3183C33.7414 29.4092 34 28.5076 34 26.021V18.0102C34 15.5237 33.7414 14.622 33.2558 13.713C32.7702 12.804 32.0577 12.0906 31.1497 11.6044C30.7507 11.3908 30.3532 11.221 29.822 11.0978L29.8214 10.5699C29.8214 10.2096 29.7568 9.94066 29.6354 9.7134C29.5139 9.48614 29.3358 9.30775 29.1089 9.18628C28.8819 9.06472 28.6132 9 28.2534 9H28.1395C27.7796 9 27.511 9.06472 27.284 9.18628C27.057 9.30775 26.8788 9.48614 26.7574 9.7134C26.6361 9.94066 26.5714 10.2096 26.5714 10.5699V10.8593L15.4286 10.8575V10.5699C15.4286 10.2096 15.3639 9.94066 15.2425 9.7134C15.1212 9.48614 14.943 9.30775 14.716 9.18628ZM12.7975 17.832H29.2025C29.7406 17.832 29.9357 17.8881 30.1324 17.9934C30.3291 18.0988 30.4835 18.2533 30.5887 18.4504C30.694 18.6473 30.7499 18.8427 30.7499 19.3814V27.775L30.7375 28.008C30.6214 29.0794 29.7149 29.9133 28.6095 29.9133L13.9827 29.8812L13.6874 29.8768C12.9553 29.8559 12.6487 29.7587 12.3399 29.5927C11.9926 29.4061 11.7201 29.1328 11.5345 28.7845C11.3488 28.4363 11.25 28.0912 11.25 27.1392V19.3814L11.2534 19.1705C11.267 18.7868 11.3211 18.6191 11.4113 18.4504C11.5164 18.2533 11.6708 18.0988 11.8676 17.9934C12.0643 17.8881 12.2594 17.832 12.7975 17.832ZM26.643 20.1562H25.5712C24.9503 20.1562 24.7253 20.221 24.4983 20.3425C24.2713 20.4641 24.0931 20.6424 23.9717 20.8696C23.8504 21.0969 23.7857 21.3223 23.7857 21.944V23.0169C23.7857 23.6386 23.8504 23.864 23.9717 24.0913C24.0931 24.3186 24.2713 24.4969 24.4983 24.6184C24.7253 24.74 24.9503 24.8047 25.5712 24.8047H26.643C27.2639 24.8047 27.489 24.74 27.716 24.6184C27.943 24.4969 28.1211 24.3186 28.2425 24.0913C28.3639 23.864 28.4285 23.6386 28.4285 23.0169V21.944C28.4285 21.3223 28.3639 21.0969 28.2425 20.8696C28.1211 20.6424 27.943 20.4641 27.716 20.3425C27.489 20.221 27.2639 20.1562 26.643 20.1562Z" fill="white"/>
</g>
<defs>
<filter id="filter0_d_1954_136" x="5.80729" y="7.24583" width="30.3854" height="28.5573" filterUnits="userSpaceOnUse" color-interpolation-filters="sRGB">
<feFlood flood-opacity="0" result="BackgroundImageFix"/>
<feColorMatrix in="SourceAlpha" type="matrix" values="0 0 0 0 0 0 0 0 0 0 0 0 0 0 0 0 0 0 127 0" result="hardAlpha"/>
<feOffset dy="0.438541"/>
<feGaussianBlur stdDeviation="1.09635"/>
<feComposite in2="hardAlpha" operator="out"/>
<feColorMatrix type="matrix" values="0 0 0 0 0 0 0 0 0 0 0 0 0 0 0 0 0 0 0.1 0"/>
<feBlend mode="normal" in2="BackgroundImageFix" result="effect1_dropShadow_1954_136"/>
<feBlend mode="normal" in="SourceGraphic" in2="effect1_dropShadow_1954_136" result="shape"/>
</filter>
<linearGradient id="paint0_linear_1954_136" x1="3.96217" y1="42.5538" x2="50.3303" y2="-5.31354" gradientUnits="userSpaceOnUse">
<stop offset="0.286667" stop-color="#FD813C"/>
<stop offset="1" stop-color="#FFF500"/>
</linearGradient>
</defs>
</svg>
