<svg xmlns="http://www.w3.org/2000/svg" viewBox="0 0 512 430"><defs><style>.cls-1{fill:#182952;}.cls-2{fill:#837dff;}</style></defs><title>Asset 1</title><g id="Layer_2" data-name="Layer 2"><g id="Capa_1" data-name="Capa 1"><path class="cls-1" d="M187,349c0-113,.1-126.93,0-127s-3.28,0-42.53,0c-8.1,0-15.09-6.22-15.45-14.31A15,15,0,0,1,144,192c39.66,0,42.8,0,43,0s0-12.77,0-111a15,15,0,0,1,15-15H371A214.56,214.56,0,0,0,216,0C96.9,0,0,96.45,0,215S96.9,430,216,430a214.56,214.56,0,0,0,155-66H202a15,15,0,0,1-15-15ZM128,128h23.53c8.1,0,15.09,6.22,15.45,14.31A15,15,0,0,1,152,158H128.47c-8.1,0-15.09-6.22-15.45-14.31A15,15,0,0,1,128,128Zm16,158H96.47c-8.1,0-15.09-6.22-15.45-14.31A15,15,0,0,1,96,256h47.53c8.1,0,15.09,6.22,15.45,14.31A15,15,0,0,1,144,286Z"/><path class="cls-2" d="M491.77,96H236.21L365.86,196Z"/><path class="cls-2" d="M375.33,226.75a15,15,0,0,1-18.49.13L217,119.07V319a15,15,0,0,0,15,15H497a15,15,0,0,0,15-15V118.24Z"/></g></g></svg>