<?xml version="1.0" encoding="UTF-8"?>
<svg xmlns="http://www.w3.org/2000/svg" width="50pt" height="42pt" viewBox="0 0 50 42" version="1.1">
<g id="surface1">
<path style=" stroke:none;fill-rule:nonzero;fill:rgb(9.411765%,16.078431%,32.156863%);fill-opacity:1;" d="M 18.261719 34.089844 C 18.261719 23.050781 18.273438 21.691406 18.261719 21.683594 C 18.25 21.675781 17.941406 21.683594 14.109375 21.683594 C 13.316406 21.683594 12.632812 21.078125 12.601562 20.285156 C 12.582031 19.886719 12.726562 19.496094 13.003906 19.207031 C 13.28125 18.917969 13.664062 18.753906 14.0625 18.753906 C 17.9375 18.753906 18.242188 18.753906 18.261719 18.753906 C 18.28125 18.753906 18.261719 17.507812 18.261719 7.910156 C 18.261719 7.101562 18.917969 6.445312 19.726562 6.445312 L 36.230469 6.445312 C 32.273438 2.324219 26.808594 -0.00390625 21.09375 0 C 9.460938 0 0 9.421875 0 21 C 0 32.578125 9.460938 42 21.09375 42 C 26.808594 42.003906 32.273438 39.675781 36.230469 35.554688 L 19.726562 35.554688 C 18.917969 35.554688 18.261719 34.898438 18.261719 34.089844 Z M 12.5 12.503906 L 14.796875 12.503906 C 15.589844 12.503906 16.273438 13.109375 16.304688 13.898438 C 16.324219 14.300781 16.179688 14.691406 15.902344 14.980469 C 15.625 15.269531 15.242188 15.433594 14.84375 15.433594 L 12.546875 15.433594 C 11.753906 15.433594 11.070312 14.824219 11.039062 14.035156 C 11.019531 13.636719 11.164062 13.246094 11.441406 12.957031 C 11.71875 12.667969 12.101562 12.503906 12.5 12.503906 Z M 14.0625 27.933594 L 9.421875 27.933594 C 8.628906 27.933594 7.945312 27.328125 7.914062 26.539062 C 7.894531 26.136719 8.039062 25.746094 8.316406 25.457031 C 8.59375 25.167969 8.976562 25.003906 9.375 25.003906 L 14.015625 25.003906 C 14.808594 25.003906 15.492188 25.613281 15.523438 26.402344 C 15.542969 26.800781 15.398438 27.191406 15.121094 27.480469 C 14.84375 27.769531 14.460938 27.933594 14.0625 27.933594 Z M 14.0625 27.933594 "/>
<path style=" stroke:none;fill-rule:nonzero;fill:rgb(51.372549%,49.019608%,100%);fill-opacity:1;" d="M 48.023438 9.375 L 23.066406 9.375 L 35.726562 19.144531 Z M 48.023438 9.375 "/>
<path style=" stroke:none;fill-rule:nonzero;fill:rgb(51.372549%,49.019608%,100%);fill-opacity:1;" d="M 36.652344 22.148438 C 36.125 22.566406 35.382812 22.570312 34.847656 22.160156 L 21.191406 11.628906 L 21.191406 31.15625 C 21.191406 31.96875 21.847656 32.625 22.65625 32.625 L 48.535156 32.625 C 49.34375 32.625 50 31.96875 50 31.15625 L 50 11.550781 Z M 36.652344 22.148438 "/>
</g>
</svg>
